<svg width="500" height="500" xmlns="http://www.w3.org/2000/svg">
 <!-- Белый фон -->

 <!-- Иконка палатки -->
 <g>
  <title>Layer 1</title>
  <circle opacity="0.8" stroke="#000000" id="svg_1" stroke-width="3" fill="white" r="237.5" cy="250" cx="250"/>
  <path stroke-width="5" stroke="null" id="svg_2" fill="#000000" d="m443.94886,354.73635l-97.50003,-219.37507a12.1875,12.1875 0 0 0 -11.13633,-7.23633l-170.62505,0a12.1875,12.1875 0 0 0 -11.07539,7.14492a0.31992,0.31992 0 0 0 0,0.09141l0,0.18281l0,0l-97.56097,219.19226a12.1875,12.1875 0 0 0 11.13633,17.13868l365.62511,0a12.1875,12.1875 0 0 0 11.13633,-17.13868zm-291.44892,-7.23633l-66.55901,0l66.55901,-149.75395l0,149.75395zm24.37501,0l0,-149.75395l66.55901,149.75395l-66.55901,0zm93.2344,0l-86.66839,-195.00006l143.94965,0l86.66839,195.00006l-143.94965,0z"/>
 </g>
</svg>